<?xml version="1.0" encoding="UTF-8"?>
<svg id="Layer_1" data-name="Layer 1" xmlns="http://www.w3.org/2000/svg" viewBox="0 0 1024 1024">
  <defs>
    <style>
      .cls-1 {
        fill: #fff;
      }

      .cls-2 {
        fill: #949494;
      }
    </style>
  </defs>
  <path class="cls-1" d="M1024,0v1024H0V0h1024ZM354,593v-39.5c-27.82-14.01-45.21-40.16-43.04-72.04,2.85-41.68,42.91-73.35,84.27-65.19,12.87,2.54,21.13,13.62,35.09,6.54,11.51-5.84,9.6-18.44,11.98-29.02,15.35-68.12,115.1-73.87,140.18-9.78,5.46,13.96,2.08,38.35,21.1,40.89,10.79,1.44,14.25-3.99,22.88-6.94,32.5-11.12,69.59,8.81,82.72,39.36,15.58,36.27-.42,79.65-37.18,94.68v41c58.72-15.7,94.34-78.84,77.26-137.76-15.6-53.81-73.14-89.17-128.23-75.24-7.71-26.8-27.15-50.53-51.36-64.17-63.47-35.77-141.52-4.88-163.64,63.76-80.57-17.77-150.76,56.5-129.53,136.4,9.5,35.75,41.25,68.76,77.5,77ZM568,684v-25.5c0-.44-2.59-5.96-3.16-6.84-9.85-15.18-32.29-9.02-33.88,8.8-1,11.17-1.14,35.03.04,46.04.92,8.59,7.96,14.79,16.46,15.54,25.48,2.25,54.21-1.76,80.04-.04,9.19-1.42,15.94-9.06,15.54-18.46-.91-72.88,1.61-146.2-1.27-218.81-4.97-13.53-21.39-15.08-31.24-5.7l-90.52,90.97c11.24-24.58,6.94-52.6-10.5-73.01-9.5-11.13-26.37-21.32-41.13-22.87-17.03-1.78-52.74-1.69-69.92-.16-9.43.84-15.14,6.97-15.49,16.51l.15,214.92c.91,17.06,24.96,23.04,34.32,9.55.71-1.03,3.57-6.77,3.57-7.43v-195.5h40.5c12.2,0,25.02,12.78,26.39,24.61.67,5.84-.56,9.91-1.89,15.39-36.22-16.1-42.5,25.05-20.39,46.9,23.71,23.43,59.51,17.48,82.92-2.87,19.54-16.98,36.64-39.07,56.47-56.03v144h-37ZM472.74,643.23c-6.24,1-13.99,7.48-15.3,13.71-1.75,8.29-1.33,38.32-.49,47.6,1.16,12.83,12.65,21.33,25.04,16.95,4.82-1.71,10.49-7.35,11.56-12.43,1.63-7.72,1.5-42.11.47-50.58-1.14-9.34-12.16-16.71-21.28-15.25Z"/>
  <path class="cls-2" d="M568,684h37v-144c-19.83,16.95-36.93,39.04-56.47,56.03-23.41,20.35-59.21,26.3-82.92,2.87-22.11-21.85-15.83-62.99,20.39-46.9,1.33-5.49,2.57-9.56,1.89-15.39-1.36-11.83-14.19-24.61-26.39-24.61h-40.5v195.5c0,.66-2.85,6.41-3.57,7.43-9.36,13.5-33.42,7.52-34.32-9.55l-.15-214.92c.36-9.53,6.07-15.67,15.49-16.51,17.18-1.52,52.89-1.62,69.92.16,14.77,1.54,31.63,11.74,41.13,22.87,17.44,20.41,21.74,48.43,10.5,73.01l90.52-90.97c9.84-9.38,26.27-7.83,31.24,5.7,2.88,72.61.37,145.94,1.27,218.81.4,9.4-6.36,17.04-15.54,18.46-25.83-1.72-54.57,2.29-80.04.04-8.5-.75-15.54-6.95-16.46-15.54-1.18-11.02-1.04-34.87-.04-46.04,1.59-17.82,24.03-23.98,33.88-8.8.57.88,3.16,6.4,3.16,6.84v25.5Z"/>
  <path d="M354,593c-36.25-8.24-68-41.26-77.5-77-21.23-79.9,48.96-154.17,129.53-136.4,22.12-68.65,100.17-99.53,163.64-63.76,24.21,13.64,43.65,37.37,51.36,64.17,55.09-13.93,112.62,21.43,128.23,75.24,17.09,58.92-18.54,122.06-77.26,137.76v-41c36.76-15.03,52.76-58.41,37.18-94.68-13.12-30.55-50.22-50.48-82.72-39.36-8.63,2.95-12.08,8.38-22.88,6.94-19.02-2.54-15.64-26.93-21.1-40.89-25.09-64.09-124.83-58.34-140.18,9.78-2.38,10.58-.47,23.18-11.98,29.02-13.96,7.08-22.22-4-35.09-6.54-41.35-8.16-81.42,23.51-84.27,65.19-2.18,31.88,15.22,58.02,43.04,72.04v39.5Z"/>
  <path d="M472.74,643.23c9.12-1.46,20.14,5.91,21.28,15.25,1.03,8.47,1.16,42.85-.47,50.58-1.07,5.08-6.74,10.72-11.56,12.43-12.39,4.39-23.88-4.11-25.04-16.95-.84-9.28-1.26-39.3.49-47.6,1.31-6.23,9.06-12.71,15.3-13.71Z"/>
</svg>